<?xml version="1.0" encoding="UTF-8" standalone="no"?>
<!-- Created with Inkscape (http://www.inkscape.org/) -->

<svg
   width="48"
   height="48"
   viewBox="0 0 48 48.000002"
   version="1.1"
   id="svg1"
   inkscape:version="1.3 (0e150ed6c4, 2023-07-21)"
   sodipodi:docname="applications.svg"
   xmlns:inkscape="http://www.inkscape.org/namespaces/inkscape"
   xmlns:sodipodi="http://sodipodi.sourceforge.net/DTD/sodipodi-0.dtd"
   xmlns:xlink="http://www.w3.org/1999/xlink"
   xmlns="http://www.w3.org/2000/svg"
   xmlns:svg="http://www.w3.org/2000/svg">
  <sodipodi:namedview
     id="namedview1"
     pagecolor="#d1d1d1"
     bordercolor="#111111"
     borderopacity="1"
     inkscape:showpageshadow="0"
     inkscape:pageopacity="0"
     inkscape:pagecheckerboard="1"
     inkscape:deskcolor="#d1d1d1"
     inkscape:document-units="px"
     inkscape:zoom="11.109765"
     inkscape:cx="95.591581"
     inkscape:cy="62.15253"
     inkscape:current-layer="layer1"
     showgrid="true"
     showguides="true">
    <inkscape:grid
       id="grid1"
       units="px"
       originx="0"
       originy="0"
       spacingx="1"
       spacingy="1"
       empcolor="#0099e5"
       empopacity="0.30196078"
       color="#0099e5"
       opacity="0.14901961"
       empspacing="5"
       dotted="false"
       gridanglex="30"
       gridanglez="30"
       visible="true" />
    <sodipodi:guide
       position="15,32.000002"
       orientation="0,-1"
       id="guide4"
       inkscape:locked="false" />
    <sodipodi:guide
       position="16,29.000002"
       orientation="1,0"
       id="guide5"
       inkscape:locked="false" />
  </sodipodi:namedview>
  <defs
     id="defs1">
    <filter
       inkscape:collect="always"
       id="filter2826"
       x="-0.047999802"
       y="-0.048000202"
       width="1.0959996"
       height="1.0960004">
      <feGaussianBlur
         inkscape:collect="always"
         stdDeviation="2.40001"
         id="feGaussianBlur2828" />
    </filter>
    <radialGradient
       inkscape:collect="always"
       xlink:href="#XMLID_23_"
       id="radialGradient2894"
       gradientUnits="userSpaceOnUse"
       gradientTransform="translate(145.71379,-238.21429)"
       cx="59.5107"
       cy="124"
       r="125.1714" />
    <radialGradient
       id="XMLID_23_"
       cx="59.5107"
       cy="124"
       r="125.1714"
       gradientUnits="userSpaceOnUse"
       gradientTransform="translate(145.71379,-238.21429)">
      <stop
         offset="0.1775"
         style="stop-color:#F0F0F0"
         id="stop9" />
      <stop
         offset="0.5325"
         style="stop-color:#A5A5BB"
         id="stop11" />
    </radialGradient>
    <linearGradient
       inkscape:collect="always"
       xlink:href="#XMLID_24_"
       id="linearGradient2896"
       gradientUnits="userSpaceOnUse"
       gradientTransform="translate(145.71379,-238.21429)"
       x1="60.0005"
       y1="12.8452"
       x2="60.0005"
       y2="120.2141" />
    <linearGradient
       id="XMLID_24_"
       gradientUnits="userSpaceOnUse"
       x1="60.0005"
       y1="12.8452"
       x2="60.0005"
       y2="120.2141"
       gradientTransform="translate(145.71379,-238.21429)">
      <stop
         offset="0"
         style="stop-color:#FFFFFF"
         id="stop16" />
      <stop
         offset="1"
         style="stop-color:#ffffff;stop-opacity:0;"
         id="stop18" />
    </linearGradient>
    <linearGradient
       inkscape:collect="always"
       xlink:href="#XMLID_25_"
       id="linearGradient2898"
       gradientUnits="userSpaceOnUse"
       gradientTransform="translate(145.71379,-238.21429)"
       x1="60.001499"
       y1="94"
       x2="60.001499"
       y2="26.0005" />
    <linearGradient
       id="XMLID_25_"
       gradientUnits="userSpaceOnUse"
       x1="60.001499"
       y1="94"
       x2="60.001499"
       y2="26.0005"
       gradientTransform="translate(145.71379,-238.21429)">
      <stop
         offset="0.2959"
         style="stop-color:#FFFFFF"
         id="stop23" />
      <stop
         offset="1"
         style="stop-color:#4A4A55"
         id="stop25" />
    </linearGradient>
    <linearGradient
       inkscape:collect="always"
       xlink:href="#XMLID_26_"
       id="linearGradient2900"
       gradientUnits="userSpaceOnUse"
       gradientTransform="translate(145.71379,-238.21429)"
       x1="60.001499"
       y1="92"
       x2="60.001499"
       y2="28.0005" />
    <linearGradient
       id="XMLID_26_"
       gradientUnits="userSpaceOnUse"
       x1="60.001499"
       y1="92"
       x2="60.001499"
       y2="28.0005"
       gradientTransform="translate(145.71379,-238.21429)">
      <stop
         offset="0.1953"
         style="stop-color:#E9E9F0"
         id="stop30" />
      <stop
         offset="0.2597"
         style="stop-color:#DADAE2"
         id="stop32" />
      <stop
         offset="0.461"
         style="stop-color:#B1B1BB"
         id="stop34" />
      <stop
         offset="0.6437"
         style="stop-color:#93939F"
         id="stop36" />
      <stop
         offset="0.7999"
         style="stop-color:#81818E"
         id="stop38" />
      <stop
         offset="0.9112"
         style="stop-color:#7A7A88"
         id="stop40" />
      <stop
         offset="1"
         style="stop-color:#696975"
         id="stop42" />
    </linearGradient>
    <linearGradient
       inkscape:collect="always"
       xlink:href="#XMLID_27_"
       id="linearGradient2902"
       gradientUnits="userSpaceOnUse"
       gradientTransform="translate(145.71379,-238.21429)"
       x1="60.001499"
       y1="86"
       x2="60.001499"
       y2="34.0005" />
    <linearGradient
       id="XMLID_27_"
       gradientUnits="userSpaceOnUse"
       x1="60.001499"
       y1="86"
       x2="60.001499"
       y2="34.0005"
       gradientTransform="translate(145.71379,-238.21429)">
      <stop
         offset="0"
         style="stop-color:#BBBBBB"
         id="stop47" />
      <stop
         offset="1"
         style="stop-color:#555555"
         id="stop49" />
    </linearGradient>
    <radialGradient
       id="XMLID_23_-5"
       cx="59.5107"
       cy="124"
       r="125.1714"
       gradientUnits="userSpaceOnUse"
       gradientTransform="translate(145.71379,-238.21429)">
      <stop
         offset="0.1775"
         style="stop-color:#F0F0F0"
         id="stop9-6" />
      <stop
         offset="0.5325"
         style="stop-color:#A5A5BB"
         id="stop11-2" />
    </radialGradient>
    <radialGradient
       id="XMLID_23_-9"
       cx="59.5107"
       cy="124"
       r="125.1714"
       gradientUnits="userSpaceOnUse"
       gradientTransform="translate(145.71379,-238.21429)">
      <stop
         offset="0.1775"
         style="stop-color:#F0F0F0"
         id="stop9-3" />
      <stop
         offset="0.5325"
         style="stop-color:#A5A5BB"
         id="stop11-6" />
    </radialGradient>
    <clipPath
       clipPathUnits="userSpaceOnUse"
       id="clipPath3872">
      <path
         style="fill:url(#radialGradient3876)"
         id="path3874"
         d="m 265.71479,-171.91229 v -12.002 l -12.439,-0.415 c -0.552,-4.127 -1.622,-8.089 -3.153,-11.816 l 10.555,-6.572 -6,-10.394 -10.981,5.861 c -2.503,-3.236 -5.408,-6.142 -8.645,-8.645 l 5.861,-10.981 -10.393,-5.999 -6.572,10.555 c -3.728,-1.532 -7.689,-2.603 -11.817,-3.155 l -0.416,-12.439 h -12 l -0.415,12.439 c -4.128,0.552 -8.09,1.623 -11.817,3.154 l -6.572,-10.554 -10.393,6 5.861,10.981 c -3.236,2.503 -6.142,5.409 -8.646,8.646 l -10.981,-5.861 -6,10.392 10.556,6.573 c -1.532,3.727 -2.603,7.689 -3.154,11.817 l -12.439,0.413 -0.001,12 12.44,0.415 c 0.552,4.128 1.623,8.09 3.154,11.817 l -10.555,6.573 5.999,10.393 10.983,-5.862 c 2.503,3.236 5.409,6.143 8.646,8.646 l -5.862,10.982 10.392,6 6.573,-10.557 c 3.727,1.531 7.689,2.603 11.817,3.154 l 0.414,12.439 h 12 l 0.415,-12.439 c 4.128,-0.552 8.09,-1.622 11.816,-3.154 l 6.572,10.556 10.393,-6 -5.861,-10.983 c 3.235,-2.503 6.142,-5.409 8.645,-8.645 l 10.981,5.861 6.001,-10.393 -10.556,-6.572 c 1.531,-3.727 2.603,-7.688 3.154,-11.816 z m -60,23.998 c -16.542,0 -30,-13.458 -30,-30 0,-16.542 13.458,-30 30,-30 16.542,0 30,13.458 30,30 0,16.542 -13.458,30 -30,30 z" />
    </clipPath>
    <radialGradient
       inkscape:collect="always"
       xlink:href="#XMLID_23_-9"
       id="radialGradient3876"
       gradientUnits="userSpaceOnUse"
       gradientTransform="translate(145.71379,-237.91429)"
       cx="59.5107"
       cy="124"
       r="125.1714" />
    <radialGradient
       id="radialGradient2"
       cx="59.5107"
       cy="124"
       r="125.1714"
       gradientUnits="userSpaceOnUse"
       gradientTransform="translate(145.71379,-238.21429)">
      <stop
         offset="0.1775"
         style="stop-color:#F0F0F0"
         id="stop1" />
      <stop
         offset="0.5325"
         style="stop-color:#A5A5BB"
         id="stop2" />
    </radialGradient>
    <linearGradient
       inkscape:collect="always"
       xlink:href="#linearGradient3180"
       id="linearGradient3186"
       x1="48.705318"
       y1="68.840515"
       x2="48.705318"
       y2="35.473202"
       gradientUnits="userSpaceOnUse"
       gradientTransform="translate(119,9)" />
    <linearGradient
       inkscape:collect="always"
       id="linearGradient3180">
      <stop
         style="stop-color:#000000;stop-opacity:1;"
         offset="0"
         id="stop3182" />
      <stop
         style="stop-color:#000000;stop-opacity:0;"
         offset="1"
         id="stop3184" />
    </linearGradient>
    <linearGradient
       inkscape:collect="always"
       xlink:href="#XMLID_27_"
       id="linearGradient3184"
       gradientUnits="userSpaceOnUse"
       gradientTransform="matrix(0.6862224,0,0,0.6888438,122.60898,10.604299)"
       x1="60.001499"
       y1="86"
       x2="60.001499"
       y2="34.0005" />
    <linearGradient
       inkscape:collect="always"
       xlink:href="#XMLID_26_"
       id="linearGradient3187"
       gradientUnits="userSpaceOnUse"
       gradientTransform="matrix(0.6182193,0,0,0.6205903,126.68925,14.699515)"
       x1="60.001499"
       y1="92"
       x2="60.001499"
       y2="28.0005" />
    <linearGradient
       inkscape:collect="always"
       xlink:href="#XMLID_25_"
       id="linearGradient3190"
       gradientUnits="userSpaceOnUse"
       gradientTransform="matrix(0.741676,0,0,0.7445205,119.28172,7.2637071)"
       x1="60.001499"
       y1="94"
       x2="60.001499"
       y2="26.0005" />
    <linearGradient
       inkscape:collect="always"
       xlink:href="#XMLID_24_"
       id="linearGradient3193"
       gradientUnits="userSpaceOnUse"
       gradientTransform="matrix(0.6630392,0,0,0.6655821,124,12.000003)"
       x1="60.0005"
       y1="12.8452"
       x2="60.0005"
       y2="120.2141" />
    <radialGradient
       inkscape:collect="always"
       xlink:href="#XMLID_23_-6"
       id="radialGradient3196"
       gradientUnits="userSpaceOnUse"
       gradientTransform="matrix(0.6630392,0,0,0.6655821,124,12.000003)"
       cx="59.5107"
       cy="124"
       r="125.1714" />
    <radialGradient
       id="XMLID_23_-6"
       cx="59.5107"
       cy="124"
       r="125.1714"
       gradientUnits="userSpaceOnUse"
       gradientTransform="translate(145.71379,-238.21429)">
      <stop
         offset="0.1775"
         style="stop-color:#F0F0F0"
         id="stop9-0" />
      <stop
         offset="0.5325"
         style="stop-color:#A5A5BB"
         id="stop11-62" />
    </radialGradient>
    <linearGradient
       inkscape:collect="always"
       xlink:href="#linearGradient3180"
       id="linearGradient3197"
       x1="47.55434"
       y1="92.936874"
       x2="47.55434"
       y2="-52.844681"
       gradientUnits="userSpaceOnUse"
       gradientTransform="translate(119,10)" />
  </defs>
  <g
     inkscape:label="Layer 1"
     inkscape:groupmode="layer"
     id="layer1">
    <g
       id="g1">
      <rect
         style="fill:none;fill-opacity:0.186364;stroke-width:2.00001;stroke-linecap:square;paint-order:markers stroke fill"
         id="rect5"
         width="32"
         height="32"
         x="0"
         y="-4.2824806e-07" />
      <rect
         style="fill:#e85752;fill-opacity:1;stroke:none;stroke-width:0.999999;stroke-linecap:square;stroke-dasharray:none;stroke-opacity:1;paint-order:markers stroke fill"
         id="rect1"
         width="9.999999"
         height="9.999999"
         x="5.000001"
         y="5.0000005"
         rx="1"
         ry="1" />
      <rect
         style="fill:#37a42c;fill-opacity:1;stroke-width:2.00001;stroke-linecap:square;paint-order:markers stroke fill"
         id="rect2"
         width="10"
         height="10"
         x="17"
         y="4.999999"
         rx="1"
         ry="1" />
      <rect
         style="fill:#2c72c7;fill-opacity:1;stroke-width:2.00001;stroke-linecap:square;paint-order:markers stroke fill"
         id="rect3"
         width="10"
         height="10"
         x="5"
         y="17"
         rx="1"
         ry="1" />
      <rect
         style="fill:#e3ad00;fill-opacity:1;stroke-width:2.00001;stroke-linecap:square;paint-order:markers stroke fill"
         id="rect4"
         width="10"
         height="10"
         x="17"
         y="17"
         rx="1"
         ry="1" />
    </g>
    <g
       id="g7"
       transform="matrix(0.30399786,0,0,0.30975164,33.963815,44.245335)"
       style="stroke-width:3.25879">
      <path
         style="stroke-width:3.25879;filter:url(#filter2826)"
         id="path6"
         d="m 265.71479,-171.21229 v -12.002 l -12.439,-0.415 c -0.552,-4.127 -1.622,-8.089 -3.153,-11.816 l 10.555,-6.572 -6,-10.394 -10.981,5.861 c -2.503,-3.236 -5.408,-6.142 -8.645,-8.645 l 5.861,-10.981 -10.393,-5.999 -6.572,10.555 c -3.728,-1.532 -7.689,-2.603 -11.817,-3.155 l -0.416,-12.439 h -12 l -0.415,12.439 c -4.128,0.552 -8.09,1.623 -11.817,3.154 l -6.572,-10.554 -10.393,6 5.861,10.981 c -3.236,2.503 -6.142,5.409 -8.646,8.646 l -10.981,-5.861 -6,10.392 10.556,6.573 c -1.532,3.727 -2.603,7.689 -3.154,11.817 l -12.439,0.413 -0.001,12 12.44,0.415 c 0.552,4.128 1.623,8.09 3.154,11.817 l -10.555,6.573 5.999,10.393 10.983,-5.862 c 2.503,3.236 5.409,6.143 8.646,8.646 l -5.862,10.982 10.392,6 6.573,-10.557 c 3.727,1.531 7.689,2.603 11.817,3.154 l 0.414,12.439 h 12 l 0.415,-12.439 c 4.128,-0.552 8.09,-1.622 11.816,-3.154 l 6.572,10.556 10.393,-6 -5.861,-10.983 c 3.235,-2.503 6.142,-5.409 8.645,-8.645 l 10.981,5.861 6.001,-10.393 -10.556,-6.572 c 1.531,-3.727 2.603,-7.688 3.154,-11.816 z m -60,23.998 c -16.542,0 -30,-13.458 -30,-30 0,-16.542 13.458,-30 30,-30 16.542,0 30,13.458 30,30 0,16.542 -13.458,30 -30,30 z" />
      <path
         style="fill:url(#radialGradient2894);stroke-width:3.25879"
         id="path13"
         d="m 265.71479,-172.21229 v -12.002 l -12.439,-0.415 c -0.552,-4.127 -1.622,-8.089 -3.153,-11.816 l 10.555,-6.572 -6,-10.394 -10.981,5.861 c -2.503,-3.236 -5.408,-6.142 -8.645,-8.645 l 5.861,-10.981 -10.393,-5.999 -6.572,10.555 c -3.728,-1.532 -7.689,-2.603 -11.817,-3.155 l -0.416,-12.439 h -12 l -0.415,12.439 c -4.128,0.552 -8.09,1.623 -11.817,3.154 l -6.572,-10.554 -10.393,6 5.861,10.981 c -3.236,2.503 -6.142,5.409 -8.646,8.646 l -10.981,-5.861 -6,10.392 10.556,6.573 c -1.532,3.727 -2.603,7.689 -3.154,11.817 l -12.439,0.413 -0.001,12 12.44,0.415 c 0.552,4.128 1.623,8.09 3.154,11.817 l -10.555,6.573 5.999,10.393 10.983,-5.862 c 2.503,3.236 5.409,6.143 8.646,8.646 l -5.862,10.982 10.392,6 6.573,-10.557 c 3.727,1.531 7.689,2.603 11.817,3.154 l 0.414,12.439 h 12 l 0.415,-12.439 c 4.128,-0.552 8.09,-1.622 11.816,-3.154 l 6.572,10.556 10.393,-6 -5.861,-10.983 c 3.235,-2.503 6.142,-5.409 8.645,-8.645 l 10.981,5.861 6.001,-10.393 -10.556,-6.572 c 1.531,-3.727 2.603,-7.688 3.154,-11.816 z m -60,23.998 c -16.542,0 -30,-13.458 -30,-30 0,-16.542 13.458,-30 30,-30 16.542,0 30,13.458 30,30 0,16.542 -13.458,30 -30,30 z" />
      <path
         style="fill:url(#linearGradient2896);stroke-width:3.25879"
         id="path20"
         d="m 200.68179,-237.21429 c -0.055,1.645 -0.382,11.473 -0.382,11.473 -0.016,0.488 -0.383,0.893 -0.867,0.958 -3.989,0.533 -7.881,1.572 -11.569,3.088 -0.452,0.186 -0.972,0.018 -1.229,-0.396 0,0 -5.191,-8.338 -6.061,-9.734 -1.292,0.746 -7.425,4.287 -8.717,5.033 0.775,1.452 5.406,10.128 5.406,10.128 0.08,0.149 0.118,0.311 0.118,0.47 0,0.301 -0.136,0.597 -0.388,0.792 -3.167,2.45 -6.016,5.299 -8.466,8.466 -0.298,0.386 -0.832,0.5 -1.262,0.271 0,0 -8.677,-4.631 -10.128,-5.406 -0.746,1.292 -4.287,7.425 -5.033,8.717 1.396,0.87 9.734,6.061 9.734,6.061 0.301,0.188 0.472,0.513 0.472,0.85 0,0.127 -0.024,0.256 -0.075,0.38 -1.517,3.689 -2.556,7.582 -3.088,11.569 -0.064,0.484 -0.47,0.851 -0.958,0.867 0,0 -9.828,0.328 -11.473,0.382 0,0.994 0,2.289 0,3.171 8.88,1.789 18.332,3.162 28.128,4.095 -0.06,-1.024 -0.129,-2.235 -0.129,-2.235 0,-17.093 13.907,-31 31,-31 17.094,0 31,13.907 31,31 0,0 -0.07,1.223 -0.129,2.251 9.789,-0.925 19.24,-2.292 28.129,-4.074 0,-0.887 0,-2.208 0,-3.209 -1.645,-0.055 -11.473,-0.382 -11.473,-0.382 -0.488,-0.016 -0.894,-0.383 -0.958,-0.867 -0.533,-3.988 -1.572,-7.88 -3.087,-11.568 -0.051,-0.124 -0.075,-0.252 -0.075,-0.379 0,-0.337 0.171,-0.662 0.472,-0.85 0,0 8.337,-5.191 9.733,-6.061 -0.746,-1.292 -4.287,-7.426 -5.033,-8.718 -1.451,0.774 -10.128,5.406 -10.128,5.406 -0.43,0.229 -0.963,0.115 -1.262,-0.271 -2.45,-3.168 -5.299,-6.017 -8.465,-8.466 -0.253,-0.195 -0.389,-0.49 -0.389,-0.792 0,-0.16 0.038,-0.321 0.118,-0.47 0,0 4.631,-8.676 5.405,-10.128 -1.292,-0.746 -7.425,-4.288 -8.717,-5.034 -0.87,1.396 -6.062,9.734 -6.062,9.734 -0.258,0.414 -0.777,0.582 -1.229,0.396 -3.689,-1.516 -7.582,-2.555 -11.57,-3.088 -0.483,-0.065 -0.851,-0.47 -0.866,-0.958 0,0 -0.328,-9.828 -0.383,-11.473 -1.49,0.001 -8.572,0.001 -10.064,0.001 z" />
      <path
         style="fill:url(#linearGradient2898);stroke-width:3.25879"
         id="path27"
         d="m 205.71479,-212.21429 c -18.777,0 -34,15.223 -34,34 0,18.778 15.223,34 34,34 18.778,0 34,-15.222 34,-34 0,-18.777 -15.222,-34 -34,-34 z m 0,59 c -13.785,0 -25,-11.215 -25,-25 0,-13.785 11.215,-25 25,-25 13.785,0 25,11.215 25,25 0,13.785 -11.215,25 -25,25 z" />
      <path
         style="fill:url(#linearGradient2900);stroke-width:3.25879"
         id="path44"
         d="m 205.71479,-210.21429 c -17.645,0 -32,14.355 -32,32 0,17.645 14.355,32 32,32 17.645,0 32,-14.355 32,-32 0,-17.645 -14.355,-32 -32,-32 z m 0,57 c -13.785,0 -25,-11.215 -25,-25 0,-13.785 11.215,-25 25,-25 13.785,0 25,11.215 25,25 0,13.785 -11.215,25 -25,25 z" />
      <path
         style="fill:url(#linearGradient2902);stroke-width:3.25879"
         id="path51"
         d="m 205.71479,-204.21429 c -14.336,0 -26,11.664 -26,26 0,14.337 11.664,26 26,26 14.337,0 26,-11.663 26,-26 0,-14.336 -11.663,-26 -26,-26 z m 0,50 c -13.233,0 -24,-10.767 -24,-24 0,-13.233 10.767,-24 24,-24 13.233,0 24,10.767 24,24 0,13.233 -10.767,24 -24,24 z" />
      <path
         style="fill:#ffffff;stroke-width:3.25879"
         id="path53"
         d="m 161.00579,-159.79329 -10.253,6.384 0.425,0.735 10.131,-6.308 c -0.11,-0.266 -0.199,-0.543 -0.303,-0.811 z" />
      <path
         style="fill:#ffffff;stroke-width:3.25879"
         id="path55"
         d="m 180.91079,-232.17529 6.572,10.555 c 3.727,-1.532 7.689,-2.603 11.817,-3.154 l 0.415,-12.44 h 12 l 0.415,12.439 c 4.128,0.552 8.09,1.623 11.817,3.155 l 6.572,-10.555 9.984,5.766 0.408,-0.765 -10.391,-6.001 -6.572,10.555 c -3.728,-1.532 -7.689,-2.603 -11.817,-3.155 l -0.416,-12.439 h -12 l -0.415,12.439 c -4.128,0.552 -8.09,1.623 -11.817,3.154 l -6.572,-10.554 -10.393,6 0.408,0.765 z" />
      <path
         style="fill:#ffffff;stroke-width:3.25879"
         id="path57"
         d="m 235.42079,-215.88729 -0.37,0.694 c 3.236,2.503 6.142,5.409 8.645,8.645 l 10.981,-5.861 5.575,9.658 0.425,-0.265 -6,-10.394 -10.981,5.861 c -2.406,-3.108 -5.19,-5.903 -8.275,-8.338 z" />
      <path
         style="fill:#ffffff;stroke-width:3.25879"
         id="path59"
         d="m 176.00979,-139.53929 -5.491,10.288 0.408,0.235 5.454,-10.218 c -0.127,-0.097 -0.245,-0.207 -0.371,-0.305 z" />
      <path
         style="opacity:0.5;fill:#ffffff;stroke-width:3.25879"
         id="path61"
         d="m 249.69579,-176.83029 c -0.394,23.923 -19.966,43.267 -43.981,43.267 -24.016,0 -43.587,-19.344 -43.981,-43.267 -0.004,0.244 -0.019,0.487 -0.019,0.732 0,24.262 19.738,44 44,44 24.262,0 44,-19.738 44,-44 0,-0.245 -0.015,-0.488 -0.019,-0.732 z" />
      <path
         style="fill:#ffffff;stroke-width:3.25879"
         id="path63"
         d="m 253.27579,-184.62829 c -0.513,-3.833 -1.489,-7.514 -2.85,-11.005 l -0.304,0.189 c 1.531,3.727 2.602,7.688 3.153,11.816 l 12.44,0.414 v -1 z" />
      <path
         style="fill:#ffffff;stroke-width:3.25879"
         id="path65"
         d="m 250.12079,-158.98229 10.131,6.308 0.425,-0.735 -10.252,-6.384 c -0.106,0.268 -0.194,0.545 -0.304,0.811 z" />
      <path
         style="fill:#ffffff;stroke-width:3.25879"
         id="path67"
         d="m 156.75279,-212.41029 10.981,5.861 c 2.503,-3.236 5.409,-6.142 8.646,-8.646 l -0.371,-0.694 c -3.084,2.435 -5.87,5.23 -8.275,8.339 l -10.981,-5.861 -6,10.392 0.425,0.265 z" />
      <path
         style="fill:#ffffff;stroke-width:3.25879"
         id="path69"
         d="m 235.04979,-139.23429 5.453,10.217 0.408,-0.235 -5.491,-10.287 c -0.125,0.098 -0.243,0.208 -0.37,0.305 z" />
      <path
         style="fill:#ffffff;stroke-width:3.25879"
         id="path71"
         d="m 145.71479,-183.21429 12.439,-0.415 c 0.551,-4.128 1.623,-8.09 3.154,-11.817 l -0.303,-0.189 c -1.361,3.491 -2.339,7.173 -2.851,11.006 l -12.439,0.415 -0.001,12 v 0 z" />
    </g>
    <g
       id="applications-other">
      <rect
         style="fill:none;stroke-width:1.51295;stroke-linecap:round;stroke-linejoin:round;paint-order:markers stroke fill"
         id="rect6"
         width="32"
         height="32"
         x="67.449066"
         y="44.984711" />
      <g
         id="g2"
         transform="matrix(0.34190372,0,0,0.34990459,27.451157,42.462536)"
         style="stroke-width:1.02233">
        <path
           style="opacity:0.745;fill:none;stroke:url(#linearGradient3197);stroke-width:8.17863;stroke-linecap:round;stroke-linejoin:round;stroke-miterlimit:4;stroke-dasharray:none;stroke-opacity:1"
           id="path3188"
           d="m 203.56537,56.929752 v -7.988316 l -8.24754,-0.276217 c -0.366,-2.746857 -1.07545,-5.383893 -2.09057,-7.864518 l 6.99838,-4.374205 -3.97823,-6.918061 -7.28084,3.900977 c -1.65958,-2.153824 -3.58571,-4.088005 -5.73197,-5.753957 l 3.88607,-7.308757 -6.89096,-3.992827 -4.3575,7.025219 c -2.47181,-1.019672 -5.09811,-1.73251 -7.83513,-2.099912 l -0.27583,-8.279175 h -7.95647 l -0.27516,8.279175 c -2.73702,0.367402 -5.36399,1.08024 -7.83513,2.099246 l -4.3575,-7.024553 -6.89096,3.993492 3.88607,7.308757 c -2.14559,1.665952 -4.07239,3.600134 -5.73264,5.754623 l -7.28083,-3.900976 -3.97823,6.916729 6.99904,4.374871 c -1.01578,2.480624 -1.72589,5.117661 -2.09123,7.865184 l -8.24754,0.274885 -6.7e-4,7.986985 8.24821,0.276217 c 0.366,2.747523 1.07611,5.384559 2.09123,7.865183 l -6.99838,4.374872 3.97757,6.917394 7.28216,-3.901642 c 1.65959,2.153824 3.58638,4.088671 5.73264,5.754623 l -3.88674,7.309423 6.8903,3.993492 4.35816,-7.02655 c 2.47115,1.019006 5.09811,1.73251 7.83513,2.099246 l 0.2745,8.279176 h 7.95647 l 0.27516,-8.279176 c 2.73703,-0.367401 5.36399,-1.079574 7.83448,-2.099246 l 4.35749,7.025885 6.89097,-3.993493 -3.88608,-7.310088 c 2.14494,-1.665952 4.07239,-3.600134 5.73198,-5.753957 l 7.28083,3.900976 3.9789,-6.917395 -6.99904,-4.374205 c 1.01511,-2.480625 1.72589,-5.116995 2.09122,-7.864518 z m -39.78235,15.97264 c -10.968,0 -19.89118,-8.957404 -19.89118,-19.967463 0,-11.010059 8.92318,-19.967463 19.89118,-19.967463 10.96799,0 19.89117,8.957404 19.89117,19.967463 0,11.010059 -8.92318,19.967463 -19.89117,19.967463 z" />
        <path
           d="m 203.56537,55.929752 v -7.988316 l -8.24754,-0.276217 c -0.366,-2.746857 -1.07545,-5.383893 -2.09057,-7.864518 l 6.99838,-4.374205 -3.97823,-6.918061 -7.28084,3.900977 c -1.65958,-2.153824 -3.58571,-4.088005 -5.73197,-5.753957 l 3.88607,-7.308757 -6.89096,-3.992827 -4.3575,7.025219 c -2.47181,-1.019672 -5.09811,-1.73251 -7.83513,-2.099912 l -0.27583,-8.279175 h -7.95647 l -0.27516,8.279175 c -2.73702,0.367402 -5.36399,1.08024 -7.83513,2.099246 l -4.3575,-7.024553 -6.89096,3.993492 3.88607,7.308757 c -2.14559,1.665952 -4.07239,3.600134 -5.73264,5.754623 l -7.28083,-3.900976 -3.97823,6.916729 6.99904,4.374871 c -1.01578,2.480624 -1.72589,5.117661 -2.09123,7.865184 l -8.24754,0.274885 -6.7e-4,7.986985 8.24821,0.276217 c 0.366,2.747523 1.07611,5.384559 2.09123,7.865183 l -6.99838,4.374872 3.97757,6.917394 7.28216,-3.901642 c 1.65959,2.153824 3.58638,4.088671 5.73264,5.754623 l -3.88674,7.309423 6.8903,3.993492 4.35816,-7.02655 c 2.47115,1.019006 5.09811,1.73251 7.83513,2.099246 l 0.2745,8.279176 h 7.95647 l 0.27516,-8.279176 c 2.73703,-0.367401 5.36399,-1.079574 7.83448,-2.099246 l 4.35749,7.025885 6.89097,-3.993493 -3.88608,-7.310088 c 2.14494,-1.665952 4.07239,-3.600134 5.73198,-5.753957 l 7.28083,3.900976 3.9789,-6.917395 -6.99904,-4.374205 c 1.01511,-2.480625 1.72589,-5.116995 2.09122,-7.864518 z m -39.78235,15.97264 c -10.968,0 -19.89118,-8.957404 -19.89118,-19.967463 0,-11.010059 8.92318,-19.967463 19.89118,-19.967463 10.96799,0 19.89117,8.957404 19.89117,19.967463 0,11.010059 -8.92318,19.967463 -19.89117,19.967463 z"
           id="path13-8"
           style="fill:url(#radialGradient3196);stroke-width:1.02233" />
        <path
           d="m 160.44594,12.665585 c -0.0365,1.094882 -0.25328,7.636223 -0.25328,7.636223 -0.0106,0.324804 -0.25394,0.594365 -0.57485,0.637628 -2.64487,0.354755 -5.22541,1.046295 -7.6707,2.055317 -0.2997,0.123799 -0.64448,0.01198 -0.81488,-0.26357 0,0 -3.44184,-5.549624 -4.01868,-6.478776 -0.85665,0.496524 -4.92307,2.85335 -5.77971,3.349874 0.51385,0.966426 3.58439,6.741016 3.58439,6.741016 0.053,0.09917 0.0782,0.206996 0.0782,0.312823 0,0.200341 -0.0902,0.397353 -0.25726,0.527141 -2.09985,1.630677 -3.98885,3.52692 -5.61329,5.634819 -0.19759,0.256914 -0.55165,0.332791 -0.83676,0.180372 0,0 -5.75319,-3.08231 -6.71526,-3.598137 -0.49463,0.859933 -2.84245,4.941948 -3.33707,5.80188 0.9256,0.579056 6.45402,4.034093 6.45402,4.034093 0.19957,0.125129 0.31295,0.341443 0.31295,0.565745 0,0.08453 -0.0159,0.170389 -0.0497,0.252921 -1.00583,2.455332 -1.69473,5.046443 -2.04746,7.700119 -0.0424,0.322142 -0.31163,0.56641 -0.63519,0.57706 0,0 -6.51635,0.218311 -7.60705,0.254252 0,0.661589 0,1.523517 0,2.110561 5.88779,1.190726 12.15483,2.104571 18.64996,2.725559 -0.0398,-0.681556 -0.0855,-1.487576 -0.0855,-1.487576 0,-11.376795 9.22089,-20.633045 20.55422,-20.633045 11.33399,0 20.55421,9.25625 20.55421,20.633045 0,0 -0.0464,0.814007 -0.0855,1.498225 6.4905,-0.615664 12.75688,-1.525514 18.65063,-2.711582 0,-0.590371 0,-1.469605 0,-2.135853 -1.0907,-0.03661 -7.60704,-0.254252 -7.60704,-0.254252 -0.32357,-0.01065 -0.59276,-0.254918 -0.6352,-0.57706 -0.3534,-2.654341 -1.04229,-5.244787 -2.0468,-7.699453 -0.0338,-0.08253 -0.0497,-0.167727 -0.0497,-0.252256 0,-0.224301 0.11338,-0.440615 0.31296,-0.565745 0,0 5.52775,-3.455036 6.45336,-4.034093 -0.49463,-0.859932 -2.84245,-4.942612 -3.33708,-5.802545 -0.96207,0.515161 -6.71526,3.598137 -6.71526,3.598137 -0.28511,0.152419 -0.63851,0.07654 -0.83676,-0.180372 -1.62444,-2.108565 -3.51344,-4.004808 -5.61262,-5.634819 -0.16775,-0.129788 -0.25792,-0.326135 -0.25792,-0.527141 0,-0.106493 0.0252,-0.213651 0.0782,-0.312823 0,0 3.07053,-5.77459 3.58372,-6.741016 -0.85664,-0.496524 -4.92306,-2.854016 -5.77971,-3.35054 -0.57684,0.929153 -4.01934,6.478776 -4.01934,6.478776 -0.17107,0.275551 -0.51519,0.387369 -0.81488,0.263571 -2.44595,-1.009023 -5.02716,-1.700563 -7.67136,-2.055318 -0.32025,-0.04326 -0.56425,-0.312823 -0.57419,-0.637627 0,0 -0.21748,-6.541341 -0.25395,-7.636224 -0.98793,6.66e-4 -5.68357,6.66e-4 -6.67283,6.66e-4 z"
           id="path20-7"
           style="fill:url(#linearGradient3193);stroke-width:1.02233" />
        <path
           d="m 163.78302,26.621237 c -13.92646,0 -25.21698,11.333825 -25.21698,25.313692 0,13.980605 11.29052,25.313691 25.21698,25.313691 C 177.71021,77.24862 189,65.915534 189,51.934929 189,37.955062 177.71021,26.621237 163.78302,26.621237 Z m 0,43.926702 c -10.22401,0 -18.5419,-8.349794 -18.5419,-18.61301 0,-10.263216 8.31789,-18.61301 18.5419,-18.61301 10.224,0 18.5419,8.349794 18.5419,18.61301 0,10.263216 -8.3179,18.61301 -18.5419,18.61301 z"
           id="path27-9"
           style="fill:url(#linearGradient3190);stroke-width:1.02233" />
        <path
           d="M 163.78302,32.076038 C 152.87454,32.076038 144,40.984614 144,51.934929 c 0,10.950315 8.87454,19.85889 19.78302,19.85889 10.90848,0 19.78302,-8.908575 19.78302,-19.85889 0,-10.950315 -8.87454,-19.858891 -19.78302,-19.858891 z m 0,35.373646 c -8.52216,0 -15.45548,-6.959915 -15.45548,-15.514755 0,-8.554841 6.93332,-15.514756 15.45548,-15.514756 8.52216,0 15.45548,6.959915 15.45548,15.514756 0,8.55484 -6.93332,15.514755 -15.45548,15.514755 z"
           id="path44-2"
           style="fill:url(#linearGradient3187);stroke-width:1.02233" />
        <path
           d="m 163.78302,34.024989 c -9.83769,0 -17.84179,8.034675 -17.84179,17.909939 0,9.875953 8.0041,17.909939 17.84179,17.909939 9.83837,0 17.84178,-8.033986 17.84178,-17.909939 0,-9.875264 -8.00341,-17.909939 -17.84178,-17.909939 z m 0,34.442191 c -9.08079,0 -16.46934,-7.416782 -16.46934,-16.532252 0,-9.11547 7.38855,-16.532252 16.46934,-16.532252 9.08078,0 16.46934,7.416782 16.46934,16.532252 0,9.11547 -7.38856,16.532252 -16.46934,16.532252 z"
           id="path51-0"
           style="opacity:0.45;fill:url(#linearGradient3184);stroke:#000000;stroke-width:2.35136;stroke-miterlimit:4;stroke-dasharray:none;stroke-opacity:1" />
        <path
           d="m 144.08744,77.676316 -3.64075,6.847509 0.27052,0.156412 3.61622,-6.800918 c -0.0842,-0.06456 -0.16245,-0.137776 -0.24599,-0.203003 z"
           id="path59-2"
           style="fill:#ffffff;stroke-width:1.02233" />
        <path
           d="m 192.94415,52.856094 c -0.26124,15.922721 -13.23825,28.797741 -29.16113,28.797741 -15.92355,0 -28.89989,-12.87502 -29.16113,-28.797741 -0.003,0.162402 -0.0126,0.324139 -0.0126,0.487206 0,16.148353 13.08707,29.285613 29.17373,29.285613 16.08665,0 29.17372,-13.13726 29.17372,-29.285613 0,-0.163067 -0.01,-0.324804 -0.0126,-0.487206 z"
           id="path61-3"
           style="opacity:0.5;fill:#ffffff;stroke-width:1.02233" />
        <path
           d="m 183.23327,77.879319 3.61556,6.800252 0.27052,-0.156412 -3.64075,-6.846843 c -0.0829,0.06523 -0.16112,0.138441 -0.24533,0.203003 z"
           id="path69-7"
           style="fill:#ffffff;stroke-width:1.02233" />
        <path
           style="fill:#ffffff;fill-opacity:1;stroke-width:1.02233"
           d="m 159.8125,12 -0.28125,8.28125 c -2.73702,0.367402 -5.3726,1.074744 -7.84375,2.09375 l -4.34375,-7.03125 -6.90625,4 1.21875,2.28125 5.6875,-3.28125 4.34375,7.03125 c 2.47115,-1.019006 5.10673,-1.726348 7.84375,-2.09375 L 159.8125,15 h 7.9375 l 0.28125,8.28125 c 2.73703,0.367402 5.37194,1.074079 7.84375,2.09375 l 4.34375,-7.03125 5.6875,3.28125 1.21875,-2.28125 -6.90625,-4 -4.34375,7.03125 c -2.47181,-1.019672 -5.10672,-1.726348 -7.84375,-2.09375 L 167.75,12 Z m -16.59375,15.5625 c -1.70594,1.450765 -3.25515,3.066111 -4.625,4.84375 L 131.3125,28.5 l -3.96875,6.9375 1.25,0.78125 2.71875,-4.71875 7.28125,3.90625 c 1.66025,-2.154489 3.6044,-4.084048 5.75,-5.75 z m 41.125,0.03125 -1.09375,2.0625 c 2.14626,1.665952 4.05916,3.596176 5.71875,5.75 L 196.25,31.5 l 2.71875,4.71875 1.25,-0.78125 L 196.25,28.5 l -7.28125,3.90625 c -1.36671,-1.773723 -2.92268,-3.363832 -4.625,-4.8125 z M 133.46875,42.25 c -0.55207,1.746126 -0.97118,3.544355 -1.21875,5.40625 L 124,47.9375 v 3 l 8.25,-0.28125 c 0.36533,-2.747523 1.07797,-5.363128 2.09375,-7.84375 z m 60.65625,0 -0.90625,0.5625 c 1.01511,2.480625 1.72775,5.096894 2.09375,7.84375 l 8.25,0.28125 v -3 l -8.25,-0.28125 C 195.06477,45.796978 194.67572,43.994194 194.125,42.25 Z m -50.1875,11.1875 c -0.0369,0.495638 -0.0312,0.995061 -0.0312,1.5 0,11.010059 8.907,19.968752 19.875,19.96875 10.96799,0 19.90625,-8.958691 19.90625,-19.96875 0,-0.504939 -0.0256,-1.004362 -0.0625,-1.5 -0.76712,10.311623 -9.37876,18.46875 -19.84375,18.46875 -10.46499,-10e-7 -19.07663,-8.157128 -19.84375,-18.46875 z m -10.46875,11.1875 -6.125,3.8125 1.25,2.21875 5.75,-3.59375 c -0.32721,-0.799597 -0.61248,-1.606939 -0.875,-2.4375 z m 60.625,0 c -0.26259,0.830468 -0.54779,1.637903 -0.875,2.4375 l 5.75,3.59375 1.25,-2.21875 z"
           id="path3199"
           sodipodi:nodetypes="ccccccccccccccccccccccccccccccccccccccccccccccccccccccssscsccccccccccc" />
        <path
           style="opacity:0.215;fill:none;stroke:url(#linearGradient3186);stroke-width:2.35136;stroke-miterlimit:4;stroke-dasharray:none;stroke-opacity:1"
           id="path3176"
           d="m 163.78301,23.15 c -15.81254,0 -28.67788,12.913364 -28.67788,28.784929 0,15.872674 12.86534,28.784929 28.67788,28.784929 15.81365,0 28.67789,-12.912255 28.67789,-28.784929 C 192.4609,36.063364 179.59666,23.15 163.78301,23.15 Z m 0,55.355634 c -14.59594,0 -26.47189,-11.920284 -26.47189,-26.570705 0,-14.650422 11.87595,-26.570705 26.47189,-26.570705 14.59594,0 26.4719,11.920283 26.4719,26.570705 0,14.650421 -11.87596,26.570705 -26.4719,26.570705 z" />
      </g>
    </g>
  </g>
</svg>
