<?xml version="1.0" encoding="UTF-8" standalone="no"?>
<!-- Generator: Adobe Illustrator 10.0.3, SVG Export Plug-In . SVG Version: 3.0.0 Build 77)  -->

<svg
   width="48"
   height="48"
   viewBox="0 0 48 48.000001"
   overflow="visible"
   enable-background="new 0 0 128 129.396"
   xml:space="preserve"
   version="1.1"
   id="svg98"
   sodipodi:docname="start.svg"
   inkscape:version="1.3 (0e150ed6c4, 2023-07-21)"
   xmlns:inkscape="http://www.inkscape.org/namespaces/inkscape"
   xmlns:sodipodi="http://sodipodi.sourceforge.net/DTD/sodipodi-0.dtd"
   xmlns="http://www.w3.org/2000/svg"
   xmlns:svg="http://www.w3.org/2000/svg"><defs
   id="defs98" /><sodipodi:namedview
   id="namedview98"
   pagecolor="#ffffff"
   bordercolor="#111111"
   borderopacity="1"
   inkscape:showpageshadow="0"
   inkscape:pageopacity="0"
   inkscape:pagecheckerboard="1"
   inkscape:deskcolor="#d1d1d1"
   inkscape:zoom="9.9703962"
   inkscape:cx="68.151755"
   inkscape:cy="16.799734"
   inkscape:current-layer="svg98"
   showgrid="true"><inkscape:grid
     id="grid1"
     units="px"
     originx="0"
     originy="0"
     spacingx="1"
     spacingy="1"
     empcolor="#0099e5"
     empopacity="0.30196078"
     color="#0099e5"
     opacity="0.14901961"
     empspacing="5"
     dotted="false"
     gridanglex="30"
     gridanglez="30"
     visible="true" /></sodipodi:namedview>&#10;	&#10;<g
   id="start-here-kde"
   transform="translate(-42,5.0000003)"><rect
     style="fill:none;fill-opacity:1;stroke:none;stroke-width:1.42004;stroke-linecap:round;stroke-linejoin:round;paint-order:markers stroke fill"
     id="rect1"
     width="22"
     height="22"
     x="60"
     y="4.9999995" /><path
     id="path1"
     style="fill:#000000;fill-opacity:0.25;stroke-width:0.298715"
     d="m 72.858607,8.0127298 -2.388457,-0.012735 -0.08293,11.9307962 2.482009,0.06588 V 14.92767 l 4.090605,5.375228 3.009333,-0.416827 L 76.034835,13.938898 80,8.3829826 76.929001,8.1360649 72.827767,13.567594 Z m -6.459911,3.3129522 c -0.03263,0.0033 -0.06793,0.01238 -0.0925,0.037 l -1.134667,1.134667 c -0.04765,0.04781 -0.05348,0.120967 -0.0185,0.178834 l 1.325834,2.189167 c -0.235418,0.39575 -0.426586,0.820268 -0.561167,1.270333 l -2.435834,0.505667 c -0.06778,0.01401 -0.117166,0.07853 -0.117166,0.147999 v 1.603334 c 0,0.06778 0.05155,0.125848 0.117166,0.141832 l 2.361834,0.573501 c 0.126293,0.521056 0.321408,1.019673 0.579667,1.473834 l -1.369001,2.084333 c -0.03819,0.05821 -0.03073,0.135864 0.0185,0.185 l 1.134667,1.134667 c 0.04781,0.04766 0.121114,0.05362 0.178834,0.0185 l 2.146,-1.301167 c 0.42091,0.243015 1.166842,0.644996 1.646901,0.774643 l 0.4995,2.405001 c 0.014,0.06799 0.07241,0.117172 0.141825,0.117172 h 1.603334 c 0.06729,0 0.125849,-0.04519 0.141833,-0.111 l 0.592,-2.417334 c 0.495106,-0.133495 0.630207,0.08295 1.06197,-0.171213 l 2.115167,1.3875 c 0.05831,0.03799 0.135568,0.03064 0.185,-0.0185 l 1.1285,-1.134666 c 0.04795,-0.04785 0.05979,-0.121114 0.02467,-0.178834 l -0.770834,-1.270334 -0.252832,0.08016 c -0.0365,0.01125 -0.07696,-0.0052 -0.09867,-0.037 0,0 -0.486924,-0.716275 -1.122334,-1.6465 -0.759926,1.486997 -1.978003,2.089048 -3.762971,2.089048 -2.536409,-10e-7 -4.884401,-2.265068 -4.884401,-4.801478 0,-1.865727 1.115682,-3.468188 2.713333,-4.187168 v -1.183995 c -0.290768,0.101774 -0.571675,0.224565 -0.838667,0.37 -4.78e-4,-2.96e-4 5.08e-4,-0.0058 0,-0.0062 l -2.1645,-1.418334 c -0.02911,-0.01904 -0.05987,-0.02187 -0.0925,-0.01849 z"
     sodipodi:nodetypes="ccccccccccccccccccccccccccccccccccccccccccccssccsccc" /><path
     id="path5692_1_"
     style="fill:#f9f9f9;fill-opacity:1;stroke-width:0.298715"
     d="m 71.493911,7.0127293 -2.388457,-0.012735 -0.08293,11.9307967 2.482009,0.06588 V 13.92767 l 4.090605,5.375228 3.009333,-0.416827 -3.934332,-5.947173 3.965165,-5.5559159 -3.070999,-0.2469177 -4.101234,5.4315296 z M 65.034,10.325682 c -0.03263,0.0033 -0.06793,0.01238 -0.0925,0.037 l -1.134667,1.134667 c -0.04765,0.04781 -0.05348,0.120967 -0.0185,0.178834 l 1.325834,2.189167 C 64.878749,14.2611 64.687581,14.685618 64.553,15.135683 L 62.117166,15.64135 C 62.049386,15.655359 62,15.719879 62,15.789349 v 1.603334 c 0,0.06778 0.05155,0.125848 0.117166,0.141832 L 64.479,18.108016 c 0.126293,0.521056 0.321408,1.019673 0.579667,1.473834 l -1.369001,2.084333 c -0.03819,0.05821 -0.03073,0.135864 0.0185,0.185 l 1.134667,1.134667 c 0.04781,0.04766 0.121114,0.05362 0.178834,0.0185 l 2.146,-1.301167 c 0.42091,0.243015 1.166842,0.644996 1.646901,0.774643 l 0.4995,2.405001 c 0.014,0.06799 0.07241,0.117172 0.141825,0.117172 h 1.603334 c 0.06729,0 0.125849,-0.04519 0.141833,-0.111 l 0.592,-2.417334 c 0.495106,-0.133495 0.630207,0.08295 1.06197,-0.171213 l 2.115167,1.3875 c 0.05831,0.03799 0.135568,0.03064 0.185,-0.0185 l 1.1285,-1.134666 c 0.04795,-0.04785 0.05979,-0.121114 0.02467,-0.178834 l -0.770834,-1.270334 -0.252832,0.08016 c -0.0365,0.01125 -0.07696,-0.0052 -0.09867,-0.037 0,0 -0.486924,-0.716275 -1.122334,-1.6465 -0.759926,1.486997 -1.978003,2.089048 -3.762971,2.089048 -2.536409,-10e-7 -4.884401,-2.265068 -4.884401,-4.801478 0,-1.865727 1.115682,-3.468188 2.713333,-4.187168 v -1.183995 c -0.290768,0.101774 -0.571675,0.224565 -0.838667,0.37 -4.78e-4,-2.96e-4 5.08e-4,-0.0058 0,-0.0062 l -2.1645,-1.418334 c -0.02911,-0.01904 -0.05987,-0.02187 -0.0925,-0.01849 z"
     sodipodi:nodetypes="ccccccccccccccccccccccccccccccccccccccccccccssccsccc" /></g></svg>
